<svg width="24" height="23" viewBox="0 0 24 23" xmlns="http://www.w3.org/2000/svg">
<path d="M12 15.984L16.8 11.4172L15.12 9.81875L13.2001 11.6455V6.85029H10.8001V11.6455L8.88001 9.81875L7.20001 11.4172L12 15.984ZM12 22.8343C10.3401 22.8343 8.78001 22.5344 7.32001 21.9346C5.86001 21.3356 4.59 20.5223 3.51001 19.4948C2.43 18.4673 1.5752 17.259 0.945599 15.8698C0.3152 14.4807 0 12.9965 0 11.4172C0 9.83779 0.3152 8.35356 0.945599 6.96447C1.5752 5.57537 2.43 4.36706 3.51001 3.33952C4.59 2.31197 5.86001 1.49831 7.32001 0.89853C8.78001 0.29951 10.3401 0 12 0C13.6601 0 15.22 0.29951 16.68 0.89853C18.14 1.49831 19.4101 2.31197 20.49 3.33952C21.57 4.36706 22.4248 5.57537 23.0544 6.96447C23.6848 8.35356 24 9.83779 24 11.4172C24 12.9965 23.6848 14.4807 23.0544 15.8698C22.4248 17.259 21.57 18.4673 20.49 19.4948C19.4101 20.5223 18.14 21.3356 16.68 21.9346C15.22 22.5344 13.6601 22.8343 12 22.8343ZM12 20.5509C14.6801 20.5509 16.95 19.6661 18.81 17.8964C20.6701 16.1267 21.6 13.9669 21.6 11.4172C21.6 8.86733 20.6701 6.70758 18.81 4.93792C16.95 3.16826 14.6801 2.28343 12 2.28343C9.32001 2.28343 7.05001 3.16826 5.19001 4.93792C3.33 6.70758 2.40001 8.86733 2.40001 11.4172C2.40001 13.9669 3.33 16.1267 5.19001 17.8964C7.05001 19.6661 9.32001 20.5509 12 20.5509Z"/>
</svg>
