<svg width="24" height="24" viewBox="0 0 24 24"   xmlns="http://www.w3.org/2000/svg">
<path fill-rule="evenodd" clip-rule="evenodd" d="M12.0137 15.2463L20.096 23.3302C20.5249 23.7591 21.1066 24 21.7131 24C22.3196 24 22.9013 23.7591 23.3302 23.3302C23.7591 22.9013 24 22.3197 24 21.7131C24 21.1066 23.7591 20.5249 23.3302 20.096L15.2448 12.0137L23.3287 3.93134C23.5409 3.71898 23.7093 3.4669 23.8241 3.18948C23.9389 2.91206 23.998 2.61473 23.9979 2.31448C23.9979 2.01424 23.9387 1.71694 23.8237 1.43957C23.7087 1.16221 23.5403 0.9102 23.3279 0.697942C23.1155 0.485684 22.8635 0.317332 22.586 0.202497C22.3086 0.0876622 22.0113 0.0285937 21.711 0.0286645C21.4108 0.0287353 21.1135 0.0879435 20.8361 0.202909C20.5588 0.317875 20.3068 0.486347 20.0945 0.698705L12.0137 8.78106L3.93131 0.698705C3.72053 0.480255 3.46834 0.305973 3.18948 0.186028C2.91061 0.0660829 2.61065 0.00287582 2.3071 9.58722e-05C2.00355 -0.00268408 1.70248 0.0550182 1.42147 0.169836C1.14045 0.284654 0.885119 0.454288 0.670364 0.66884C0.45561 0.883392 0.285735 1.13857 0.170652 1.41947C0.0555696 1.70038 -0.00241657 2.00139 7.71455e-05 2.30495C0.00257086 2.6085 0.0654943 2.90852 0.185177 3.1875C0.304859 3.46647 0.478903 3.71882 0.697153 3.92982L8.78256 12.0137L0.698678 20.096C0.269801 20.5249 0.0288609 21.1066 0.0288609 21.7131C0.0288609 22.3197 0.269801 22.9013 0.698678 23.3302C1.12755 23.7591 1.70924 24 2.31576 24C2.92228 24 3.50396 23.7591 3.93284 23.3302L12.0137 15.2448V15.2463Z" />
</svg>
