<svg width="24" height="19" viewBox="0 0 24 19"   xmlns="http://www.w3.org/2000/svg">
<path d="M23.9328 9.64816C23.8928 9.73572 22.8825 11.9149 20.602 13.9093C20.4504 14.0327 20.2596 14.1013 20.0619 14.1039C19.9509 14.1039 19.8411 14.0813 19.7395 14.0379C19.6379 13.9943 19.5467 13.9307 19.4717 13.8509L9.33937 3.0132C9.24515 2.90863 9.18105 2.78167 9.15359 2.6452C9.12613 2.50875 9.13628 2.36765 9.183 2.23624C9.22973 2.10484 9.31137 1.98779 9.41965 1.897C9.52792 1.8062 9.65896 1.74488 9.79948 1.71928C10.5267 1.60143 11.2628 1.54285 12 1.54416C15.4908 1.54416 18.6616 2.83808 21.1721 5.27025C23.0527 7.10897 23.9028 8.93797 23.9328 9.0158C23.9772 9.11564 24 9.22324 24 9.33199C24 9.44073 23.9772 9.54832 23.9328 9.64816ZM20.592 17.3631C20.6641 17.4377 20.7203 17.5259 20.7568 17.622C20.7935 17.7181 20.8099 17.8205 20.8052 17.9229C20.8007 18.0253 20.7749 18.1259 20.7297 18.2185C20.6845 18.3112 20.6207 18.3941 20.542 18.4624C20.3936 18.5921 20.2015 18.6648 20.0019 18.6667C19.8909 18.6667 19.7811 18.6441 19.6795 18.6005C19.5779 18.5571 19.4867 18.4933 19.4117 18.4137L17.2112 16.0593C15.5684 16.7591 13.7933 17.1171 12 17.1101C8.50917 17.1101 5.33843 15.8161 2.82783 13.384C0.94738 11.5453 0.0971784 9.71627 0.0671713 9.64816C0.0228584 9.54832 0 9.44073 0 9.33199C0 9.22324 0.0228584 9.11564 0.0671713 9.0158C0.137188 8.86015 1.69756 5.51347 5.32841 3.34397L3.40796 1.29122C3.27008 1.13816 3.19931 0.938667 3.21083 0.735476C3.22233 0.532285 3.31521 0.341563 3.46955 0.204168C3.62388 0.0667748 3.82741 -0.00635977 4.03652 0.000434347C4.24563 0.00722847 4.44368 0.0934105 4.58824 0.240516L20.592 17.3631ZM13.7704 12.3722L9.04931 7.32301C8.58571 7.97396 8.3626 8.75851 8.41639 9.54865C8.47016 10.3388 8.79765 11.0879 9.34543 11.6737C9.89319 12.2595 10.6289 12.6475 11.4325 12.7744C12.2362 12.9013 13.0603 12.7595 13.7704 12.3722Z" />
</svg>
