<svg width="26" height="26" viewBox="0 0 26 26"   xmlns="http://www.w3.org/2000/svg">
<path d="M1 1C5.86623 4.60768 12.0762 12.2022 12.9976 24.9952C14.0738 16.8152 14.7972 13.5975 17.7966 8.19856" stroke="black" stroke-width="2" stroke-linecap="round" stroke-linejoin="round"/>
<path d="M23.0456 6.43851C24.3214 8.38788 24.9991 10.6679 24.9952 12.9976C24.9952 19.6239 19.6239 24.9952 12.9976 24.9952C6.37133 24.9952 1 19.6239 1 12.9976C1 6.37133 6.37133 1 12.9976 1C15.4007 1 17.6395 1.70666 19.5159 2.92322" stroke="black" stroke-width="2" stroke-linecap="round" stroke-linejoin="round"/>
<path d="M19.1211 3.39952C17.919 4.92801 17.7462 6.5021 17.8014 8.19856C20.0809 8.07858 21.4043 7.95741 22.9604 6.5189C24.6472 4.95921 24.88 3.75945 25 1C21.7606 1.11998 20.6532 1.44991 19.1211 3.39952Z" stroke="black" stroke-width="2" stroke-linecap="round" stroke-linejoin="round"/>
</svg>
