<svg width="24" height="24" viewBox="0 0 24 24" fill="none" xmlns="http://www.w3.org/2000/svg">
<path d="M12 24C10.3556 24 8.80533 23.6836 7.34933 23.0507C5.89422 22.4169 4.62222 21.5556 3.53333 20.4667C2.44444 19.3778 1.58311 18.1058 0.949333 16.6507C0.316444 15.1947 0 13.6444 0 12C0 11.0222 0.111111 10.072 0.333333 9.14933C0.555556 8.22756 0.877778 7.36089 1.3 6.54933C1.72222 5.73867 2.228 4.98356 2.81733 4.284C3.40578 3.58356 4.06667 2.95556 4.8 2.4L13.8667 11.4667L12 13.3333L4.8 6.13333C4.13333 6.93333 3.61111 7.828 3.23333 8.81733C2.85556 9.80578 2.66667 10.8667 2.66667 12C2.66667 14.5778 3.57778 16.7778 5.4 18.6C7.22222 20.4222 9.42222 21.3333 12 21.3333C14.5778 21.3333 16.7778 20.4222 18.6 18.6C20.4222 16.7778 21.3333 14.5778 21.3333 12C21.3333 9.62222 20.5724 7.572 19.0507 5.84933C17.528 4.12756 15.6222 3.11111 13.3333 2.8V5.33333H10.6667V0H12C13.6444 0 15.1947 0.316444 16.6507 0.949333C18.1058 1.58311 19.3778 2.44444 20.4667 3.53333C21.5556 4.62222 22.4169 5.89422 23.0507 7.34933C23.6836 8.80533 24 10.3556 24 12C24 13.6444 23.6836 15.1947 23.0507 16.6507C22.4169 18.1058 21.5556 19.3778 20.4667 20.4667C19.3778 21.5556 18.1058 22.4169 16.6507 23.0507C15.1947 23.6836 13.6444 24 12 24ZM12 20C11.6222 20 11.3058 19.872 11.0507 19.616C10.7947 19.3609 10.6667 19.0444 10.6667 18.6667C10.6667 18.2889 10.7947 17.9724 11.0507 17.7173C11.3058 17.4613 11.6222 17.3333 12 17.3333C12.3778 17.3333 12.6947 17.4613 12.9507 17.7173C13.2058 17.9724 13.3333 18.2889 13.3333 18.6667C13.3333 19.0444 13.2058 19.3609 12.9507 19.616C12.6947 19.872 12.3778 20 12 20ZM18.6667 13.3333C18.2889 13.3333 17.9724 13.2053 17.7173 12.9493C17.4613 12.6942 17.3333 12.3778 17.3333 12C17.3333 11.6222 17.4613 11.3053 17.7173 11.0493C17.9724 10.7942 18.2889 10.6667 18.6667 10.6667C19.0444 10.6667 19.3609 10.7942 19.616 11.0493C19.872 11.3053 20 11.6222 20 12C20 12.3778 19.872 12.6942 19.616 12.9493C19.3609 13.2053 19.0444 13.3333 18.6667 13.3333ZM5.33333 13.3333C4.95556 13.3333 4.63867 13.2053 4.38267 12.9493C4.12756 12.6942 4 12.3778 4 12C4 11.6222 4.12756 11.3053 4.38267 11.0493C4.63867 10.7942 4.95556 10.6667 5.33333 10.6667C5.71111 10.6667 6.028 10.7942 6.284 11.0493C6.53911 11.3053 6.66667 11.6222 6.66667 12C6.66667 12.3778 6.53911 12.6942 6.284 12.9493C6.028 13.2053 5.71111 13.3333 5.33333 13.3333Z" fill="black"/>
</svg>
