<svg width="25" height="24" viewBox="0 0 25 24"   xmlns="http://www.w3.org/2000/svg">
<path d="M24.0774 2.82353C23.194 3.31765 22.2418 3.64235 21.2552 3.79765C22.2648 3.04941 23.0449 1.86353 23.412 0.437647C22.4598 1.14353 21.4044 1.63765 20.2915 1.92C19.3852 0.705883 18.1118 0 16.6663 0C13.9703 0 11.7676 2.71059 11.7676 6.05647C11.7676 6.53647 11.8135 7.00235 11.8938 7.44C7.80971 7.18588 4.173 4.77176 1.75234 1.11529C1.32787 2.00471 1.08695 3.04941 1.08695 4.15059C1.08695 6.25412 1.94737 8.11765 3.27816 9.17647C2.46363 9.17647 1.70646 8.89412 1.04106 8.47059V8.51294C1.04106 11.4494 2.73896 13.9059 4.98753 14.4565C4.26561 14.6996 3.50771 14.7334 2.77338 14.5553C3.08497 15.7588 3.69522 16.8119 4.51833 17.5665C5.34144 18.3211 6.33603 18.7393 7.36229 18.7624C5.62267 20.4571 3.4663 21.3732 1.24756 21.36C0.857507 21.36 0.46745 21.3318 0.0773926 21.2753C2.25713 22.9976 4.84986 24 7.62615 24C16.6663 24 21.6338 14.7671 21.6338 6.76235C21.6338 6.49412 21.6338 6.24 21.6223 5.97176C22.586 5.12471 23.412 4.05176 24.0774 2.82353Z" />
</svg>
