<svg xmlns="http://www.w3.org/2000/svg" width="42" height="42" fill="none" viewBox="0 0 42 42">
  <path stroke="#000" stroke-linecap="round" stroke-linejoin="round" stroke-width="3.25" d="M2 2c7.603 5.637 17.306 17.503 18.746 37.492m0 0c1.682-12.78 2.812-17.808 7.499-26.244m-7.499 26.245c10.354 0 18.747-8.393 18.747-18.747a18.657 18.657 0 0 0-3.047-10.248m-15.7 28.994C10.393 39.492 2 31.1 2 20.747 2 10.393 10.393 2 20.746 2 24.501 2 28 3.104 30.931 5.005m-.617.744c-1.878 2.389-2.148 4.848-2.062 7.499 3.562-.188 5.63-.377 8.061-2.625 2.636-2.437 3-4.311 3.187-8.623-5.062.187-6.792.703-9.186 3.75Z"/>
</svg>
