<svg width="24" height="20" viewBox="0 0 24 20"   xmlns="http://www.w3.org/2000/svg">
<path d="M9.6 13.7115L15.828 9.59804L9.6 5.4846V13.7115ZM23.472 2.97539C23.628 3.61983 23.736 4.48366 23.808 5.58058C23.892 6.6775 23.928 7.62359 23.928 8.44628L24 9.59804C24 12.6009 23.808 14.8084 23.472 16.2207C23.172 17.4547 22.476 18.25 21.396 18.5928C20.832 18.771 19.8 18.8944 18.216 18.9767C16.656 19.0727 15.228 19.1138 13.908 19.1138L12 19.1961C6.972 19.1961 3.84 18.9767 2.604 18.5928C1.524 18.25 0.828 17.4547 0.528 16.2207C0.372 15.5763 0.264 14.7124 0.192 13.6155C0.108 12.5186 0.0719999 11.5725 0.0719999 10.7498L0 9.59804C0 6.59523 0.192 4.38768 0.528 2.97539C0.828 1.74136 1.524 0.946093 2.604 0.603306C3.168 0.425056 4.2 0.301653 5.784 0.219384C7.344 0.123403 8.772 0.0822689 10.092 0.0822689L12 0C17.028 0 20.16 0.219384 21.396 0.603306C22.476 0.946093 23.172 1.74136 23.472 2.97539Z" />
</svg>
