<svg width="25" height="20" viewBox="0 0 25 20"   xmlns="http://www.w3.org/2000/svg">
<path d="M15.7727 0C18.0873 0 20.3072 1.05357 21.9438 2.92893C23.5805 4.8043 24.5 7.34784 24.5 10C24.5 12.6522 23.5805 15.1957 21.9438 17.0711C20.3072 18.9464 18.0873 20 15.7727 20C13.4581 20 11.2383 18.9464 9.60161 17.0711C7.96493 15.1957 7.04545 12.6522 7.04545 10C7.04545 7.34784 7.96493 4.8043 9.60161 2.92893C11.2383 1.05357 13.4581 0 15.7727 0ZM15.7727 2.5C14.0368 2.5 12.3719 3.29018 11.1444 4.6967C9.91688 6.10322 9.22727 8.01088 9.22727 10C9.22727 11.9891 9.91688 13.8968 11.1444 15.3033C12.3719 16.7098 14.0368 17.5 15.7727 17.5C17.5087 17.5 19.1736 16.7098 20.4011 15.3033C21.6286 13.8968 22.3182 11.9891 22.3182 10C22.3182 8.01088 21.6286 6.10322 20.4011 4.6967C19.1736 3.29018 17.5087 2.5 15.7727 2.5ZM14.6818 5H16.3182V9.725L18.86 12.6375L17.7036 13.9625L14.6818 10.5V5ZM1.59091 17.5C1.30158 17.5 1.0241 17.3683 0.81952 17.1339C0.614935 16.8995 0.5 16.5815 0.5 16.25C0.5 15.9185 0.614935 15.6005 0.81952 15.3661C1.0241 15.1317 1.30158 15 1.59091 15H5.76909C6.10727 15.8875 6.54364 16.725 7.04545 17.5H1.59091ZM2.68182 11.25C2.39249 11.25 2.11501 11.1183 1.91043 10.8839C1.70584 10.6495 1.59091 10.3315 1.59091 10C1.59091 9.66848 1.70584 9.35054 1.91043 9.11612C2.11501 8.8817 2.39249 8.75 2.68182 8.75H4.91818L4.86364 10L4.91818 11.25H2.68182ZM3.77273 5C3.4834 5 3.20592 4.8683 3.00134 4.63388C2.79675 4.39946 2.68182 4.08152 2.68182 3.75C2.68182 3.41848 2.79675 3.10054 3.00134 2.86612C3.20592 2.6317 3.4834 2.5 3.77273 2.5H7.04545C6.54364 3.275 6.10727 4.1125 5.76909 5H3.77273Z" />
</svg>
