<svg width="24" height="22" viewBox="0 0 24 22"   xmlns="http://www.w3.org/2000/svg">
<path d="M8.4 21.6V18H0V15.6H8.4C9.06 15.6 9.6252 15.8348 10.0956 16.3044C10.5652 16.7748 10.8 17.34 10.8 18V21.6H8.4ZM13.2 21.6V18C13.2 17.34 13.4352 16.7748 13.9056 16.3044C14.3752 15.8348 14.94 15.6 15.6 15.6H24V18H15.6V21.6H13.2ZM4.8 14.4C3.8 14.4 2.95 14.05 2.25 13.35C1.55 12.65 1.2 11.8 1.2 10.8V6H22.8V10.8C22.8 11.8 22.45 12.65 21.75 13.35C21.05 14.05 20.2 14.4 19.2 14.4H4.8ZM4.8 12H19.2C19.54 12 19.8248 11.8848 20.0544 11.6544C20.2848 11.4248 20.4 11.14 20.4 10.8V8.4H3.6V10.8C3.6 11.14 3.7148 11.4248 3.9444 11.6544C4.1748 11.8848 4.46 12 4.8 12ZM1.2 4.8V2.4H8.4V1.2C8.4 0.86 8.5152 0.5748 8.7456 0.3444C8.9752 0.1148 9.26 0 9.6 0H14.4C14.74 0 15.0252 0.1148 15.2556 0.3444C15.4852 0.5748 15.6 0.86 15.6 1.2V2.4H22.8V4.8H1.2Z" />
</svg>
