<svg width="24" height="24" viewBox="0 0 24 24"   xmlns="http://www.w3.org/2000/svg">
<path d="M1.26188e-07 9.42692V8.14121C-5.34137e-05 7.57879 0.143389 7.02317 0.420275 6.51327C0.697161 6.00338 1.10079 5.55156 1.60288 5.18947C2.10497 4.82738 2.69336 4.56378 3.32683 4.41716C3.9603 4.27053 4.62352 4.24442 5.27 4.34066C5.69078 3.0894 6.57481 1.98934 7.78876 1.20637C9.00271 0.42341 10.4808 0 12 0C13.5192 0 14.9973 0.42341 16.2112 1.20637C17.4252 1.98934 18.3092 3.0894 18.73 4.34066C19.3765 4.24442 20.0397 4.27053 20.6732 4.41716C21.3066 4.56378 21.895 4.82738 22.3971 5.18947C22.8992 5.55156 23.3028 6.00338 23.5797 6.51327C23.8566 7.02317 24.0001 7.57879 24 8.14121V9.42692C24.0004 12.0067 22.8698 14.4925 20.8323 16.3913C18.7949 18.2901 15.9993 19.4633 13 19.6783V22.284H11V19.6783C8.00068 19.4633 5.20513 18.2901 3.16765 16.3913C1.13017 14.4925 -0.000436104 12.0067 1.26188e-07 9.42692ZM8.972 8.56807H15.028C14.9391 7.8888 15.0627 7.2015 15.386 6.57668C15.7094 5.95187 16.2209 5.41206 16.868 5.01266C16.609 4.07283 15.9873 3.23548 15.1038 2.63624C14.2203 2.03701 13.1267 1.71099 12 1.71099C10.8733 1.71099 9.77968 2.03701 8.89617 2.63624C8.01265 3.23548 7.39103 4.07283 7.132 5.01266C7.77946 5.41221 8.29116 5.9523 8.61453 6.57744C8.9379 7.20258 9.06128 7.89024 8.972 8.56978V8.56807ZM6.694 8.56807C6.76816 8.28587 6.76731 7.99299 6.69152 7.71111C6.61572 7.42924 6.46692 7.16559 6.25613 6.93968C6.04534 6.71378 5.77796 6.53142 5.4738 6.40609C5.16964 6.28077 4.83648 6.2157 4.499 6.2157C4.16152 6.2157 3.82836 6.28077 3.5242 6.40609C3.22004 6.53142 2.95266 6.71378 2.74187 6.93968C2.53108 7.16559 2.38228 7.42924 2.30648 7.71111C2.23069 7.99299 2.22984 8.28587 2.304 8.56807H6.694ZM17.306 8.56807H21.694C21.7682 8.28587 21.7673 7.99299 21.6915 7.71111C21.6157 7.42924 21.4669 7.16559 21.2561 6.93968C21.0453 6.71378 20.778 6.53142 20.4738 6.40609C20.1696 6.28077 19.8365 6.2157 19.499 6.2157C19.1615 6.2157 18.8284 6.28077 18.5242 6.40609C18.22 6.53142 17.9527 6.71378 17.7419 6.93968C17.5311 7.16559 17.3823 7.42924 17.3065 7.71111C17.2307 7.99299 17.2298 8.28587 17.304 8.56807H17.306ZM12 17.9983C14.4794 17.9983 16.8703 17.2088 18.7089 15.783C20.5475 14.3573 21.7026 12.3969 21.95 10.2823H2.05C2.29744 12.3969 3.45252 14.3573 5.2911 15.783C7.12967 17.2088 9.52063 17.9983 12 17.9983ZM8 22.2857H16C16.2652 22.2857 16.5196 22.376 16.7071 22.5368C16.8946 22.6975 17 22.9155 17 23.1429C17 23.3702 16.8946 23.5882 16.7071 23.7489C16.5196 23.9097 16.2652 24 16 24H8C7.73478 24 7.48043 23.9097 7.29289 23.7489C7.10536 23.5882 7 23.3702 7 23.1429C7 22.9155 7.10536 22.6975 7.29289 22.5368C7.48043 22.376 7.73478 22.2857 8 22.2857Z" />
</svg>
