<svg width="366" height="138" viewBox="0 0 366 138"   xmlns="http://www.w3.org/2000/svg">
<path d="M91.0295 97.0371H238.322V112.118C238.322 126 227.068 137.253 213.187 137.253H116.165C102.283 137.253 91.0295 126 91.0295 112.118V97.0371Z" fill="#FC6E3C"/>
<path d="M41.2617 97.0371H126.722C126.722 105.366 119.97 112.118 111.641 112.118H56.3428C48.0138 112.118 41.2617 105.366 41.2617 97.0371Z" fill="#FC6E3C"/>
<path d="M0 46.8117C0 38.4467 1.80973 31.0067 5.42918 24.4917C9.04869 17.8962 14.0757 12.7888 20.5103 9.1693C27.0253 5.4694 34.3849 3.6195 42.589 3.6195C52.643 3.6195 61.2493 6.2737 68.4078 11.5823C75.5663 16.8908 80.352 24.1297 82.765 33.299H60.083C58.394 29.76 55.981 27.0655 52.8441 25.2156C49.7877 23.3656 46.2889 22.4406 42.3477 22.4406C35.9935 22.4406 30.8458 24.6525 26.9047 29.0763C22.9635 33.5001 20.9929 39.4119 20.9929 46.8117C20.9929 54.2115 22.9635 60.123 26.9047 64.547C30.8458 68.971 35.9935 71.183 42.3477 71.183C46.2889 71.183 49.7877 70.258 52.8441 68.408C55.981 66.558 58.394 63.863 60.083 60.324H82.765C80.352 69.494 75.5663 76.733 68.4078 82.041C61.2493 87.269 52.643 89.883 42.589 89.883C34.3849 89.883 27.0253 88.074 20.5103 84.454C14.0757 80.754 9.04869 75.647 5.42918 69.132C1.80973 62.617 0 55.1766 0 46.8117ZM126.044 90.245C119.449 90.245 113.497 88.838 108.188 86.022C102.96 83.207 98.8176 79.186 95.7611 73.958C92.7851 68.73 91.2971 62.617 91.2971 55.619C91.2971 48.7018 92.8253 42.6292 95.8817 37.4011C98.9386 32.0925 103.121 28.0307 108.43 25.2156C113.738 22.4004 119.69 20.9929 126.286 20.9929C132.881 20.9929 138.833 22.4004 144.142 25.2156C149.45 28.0307 153.633 32.0925 156.689 37.4011C159.746 42.6292 161.274 48.7018 161.274 55.619C161.274 62.536 159.705 68.649 156.568 73.958C153.512 79.186 149.289 83.207 143.9 86.022C138.592 88.838 132.64 90.245 126.044 90.245ZM126.044 72.389C129.986 72.389 133.323 70.941 136.058 68.046C138.873 65.15 140.281 61.008 140.281 55.619C140.281 50.2301 138.914 46.0878 136.179 43.1922C133.525 40.2966 130.227 38.8489 126.286 38.8489C122.264 38.8489 118.926 40.2966 116.272 43.1922C113.618 46.0073 112.29 50.1496 112.29 55.619C112.29 61.008 113.577 65.15 116.151 68.046C118.805 70.941 122.103 72.389 126.044 72.389ZM202.864 90.245C196.268 90.245 190.316 88.838 185.008 86.022C179.779 83.207 175.637 79.186 172.581 73.958C169.605 68.73 168.117 62.617 168.117 55.619C168.117 48.7018 169.645 42.6292 172.701 37.4011C175.758 32.0925 179.94 28.0307 185.249 25.2156C190.557 22.4004 196.509 20.9929 203.105 20.9929C209.7 20.9929 215.652 22.4004 220.961 25.2156C226.269 28.0307 230.452 32.0925 233.508 37.4011C236.565 42.6292 238.093 48.7018 238.093 55.619C238.093 62.536 236.525 68.649 233.388 73.958C230.331 79.186 226.109 83.207 220.72 86.022C215.411 88.838 209.459 90.245 202.864 90.245ZM202.864 72.389C206.805 72.389 210.143 70.941 212.877 68.046C215.693 65.15 217.1 61.008 217.1 55.619C217.1 50.2301 215.733 46.0878 212.998 43.1922C210.344 40.2966 207.046 38.8489 203.105 38.8489C199.083 38.8489 195.745 40.2966 193.091 43.1922C190.437 46.0073 189.11 50.1496 189.11 55.619C189.11 61.008 190.397 65.15 192.97 68.046C195.625 70.941 198.922 72.389 202.864 72.389ZM290.179 89.28L269.669 61.048V89.28H249.038V0H269.669V49.3453L290.059 21.958H315.515L287.525 55.7397L315.757 89.28H290.179ZM344.25 33.1784C346.663 29.4785 349.679 26.5829 353.298 24.4917C356.918 22.32 360.939 21.2342 365.363 21.2342V43.0716H359.693C354.545 43.0716 350.684 44.1976 348.11 46.4497C345.537 48.6214 344.25 52.4822 344.25 58.032V89.28H323.619V21.958H344.25V33.1784Z" />
</svg>
