<svg width="43" height="28" viewBox="0 0 43 28"   xmlns="http://www.w3.org/2000/svg">
<path d="M13.958 19.76H31.958V22.76C31.958 25.5214 29.7194 27.76 26.958 27.76H18.958C16.1966 27.76 13.958 25.5214 13.958 22.76V19.76Z" fill="#FC6E3C"/>
<path d="M7.95801 19.76H17.9325C17.9325 21.4169 16.5893 22.76 14.9325 22.76H10.958C9.30111 22.76 7.95801 21.4169 7.95801 19.76Z" fill="#FC6E3C"/>
<path d="M0 9.312C0 7.648 0.36 6.168 1.08 4.872C1.8 3.56 2.8 2.544 4.08 1.824C5.376 1.088 6.84 0.72 8.472 0.72C10.472 0.72 12.184 1.248 13.608 2.304C15.032 3.36 15.984 4.8 16.464 6.624H11.952C11.616 5.92 11.136 5.384 10.512 5.016C9.904 4.648 9.208 4.464 8.424 4.464C7.16 4.464 6.136 4.904 5.352 5.784C4.568 6.664 4.176 7.84 4.176 9.312C4.176 10.784 4.568 11.96 5.352 12.84C6.136 13.72 7.16 14.16 8.424 14.16C9.208 14.16 9.904 13.976 10.512 13.608C11.136 13.24 11.616 12.704 11.952 12H16.464C15.984 13.824 15.032 15.264 13.608 16.32C12.184 17.36 10.472 17.88 8.472 17.88C6.84 17.88 5.376 17.52 4.08 16.8C2.8 16.064 1.8 15.048 1.08 13.752C0.36 12.456 0 10.976 0 9.312ZM27.1613 17.76L23.0813 12.144V17.76H18.9773V0H23.0813V9.816L27.1373 4.368H32.2013L26.6333 11.088L32.2493 17.76H27.1613ZM37.9172 6.6C38.3972 5.864 38.9972 5.288 39.7172 4.872C40.4372 4.44 41.2372 4.224 42.1172 4.224V8.568H40.9892C39.9652 8.568 39.1972 8.792 38.6852 9.24C38.1732 9.672 37.9172 10.44 37.9172 11.544V17.76H33.8132V4.368H37.9172V6.6Z" />
</svg>
