<svg viewBox="0 0 24 24" xmlns="http://www.w3.org/2000/svg">
<path d="M17.1526 15.0944H16.0686L15.6844 14.7238C17.0756 13.1102 17.8403 11.05 17.8388 8.91938C17.8388 7.15527 17.3157 5.43081 16.3356 3.96403C15.3555 2.49725 13.9625 1.35403 12.3327 0.678918C10.7028 0.0038631 8.9095 -0.172755 7.17927 0.171372C5.44908 0.515554 3.85985 1.36505 2.61245 2.61245C1.36505 3.85985 0.515554 5.44908 0.171372 7.17927C-0.172755 8.9095 0.0038631 10.7028 0.678918 12.3327C1.35403 13.9625 2.49725 15.3555 3.96403 16.3356C5.43081 17.3157 7.15527 17.8388 8.91938 17.8388C11.1286 17.8388 13.1595 17.0291 14.7238 15.6844L15.0944 16.0686V17.1526L21.9554 24L24 21.9554L17.1526 15.0944ZM8.91938 15.0944C5.50259 15.0944 2.74445 12.3362 2.74445 8.91938C2.74445 5.50259 5.50259 2.74445 8.91938 2.74445C12.3362 2.74445 15.0944 5.50259 15.0944 8.91938C15.0944 12.3362 12.3362 15.0944 8.91938 15.0944Z"/>
</svg>
